<?xml version="1.0" encoding="UTF-8" standalone="no"?>
<!-- Created with Inkscape (http://www.inkscape.org/) -->

<svg
   width="182"
   height="182"
   id="svg3070"
   version="1.1"
   inkscape:version="1.2 (dc2aeda, 2022-05-15)"
   sodipodi:docname="github.svg"
   xml:space="preserve"
   xmlns:inkscape="http://www.inkscape.org/namespaces/inkscape"
   xmlns:sodipodi="http://sodipodi.sourceforge.net/DTD/sodipodi-0.dtd"
   xmlns="http://www.w3.org/2000/svg"
   xmlns:svg="http://www.w3.org/2000/svg"
   xmlns:rdf="http://www.w3.org/1999/02/22-rdf-syntax-ns#"
   xmlns:cc="http://creativecommons.org/ns#"
   xmlns:dc="http://purl.org/dc/elements/1.1/"><defs
     id="defs3072" /><sodipodi:namedview
     id="base"
     pagecolor="#ffffff"
     bordercolor="#666666"
     borderopacity="1.0"
     inkscape:pageopacity="0.0"
     inkscape:pageshadow="2"
     inkscape:zoom="1.8292047"
     inkscape:cx="29.247683"
     inkscape:cy="76.809335"
     inkscape:document-units="px"
     inkscape:current-layer="layer1"
     showgrid="false"
     fit-margin-top="0"
     fit-margin-left="0"
     fit-margin-right="0"
     fit-margin-bottom="0"
     inkscape:window-width="1920"
     inkscape:window-height="1027"
     inkscape:window-x="1512"
     inkscape:window-y="25"
     inkscape:window-maximized="1"
     inkscape:showpageshadow="2"
     inkscape:pagecheckerboard="0"
     inkscape:deskcolor="#d1d1d1" /><metadata
     id="metadata3075"><rdf:RDF><cc:Work
         rdf:about=""><dc:format>image/svg+xml</dc:format><dc:type
           rdf:resource="http://purl.org/dc/dcmitype/StillImage" /></cc:Work></rdf:RDF></metadata><g
     inkscape:label="Layer 1"
     inkscape:groupmode="layer"
     id="layer1"
     transform="translate(-200.55198,-393.96227)"><path
       id="path14"
       style="fill:#000000;fill-opacity:1;fill-rule:nonzero;stroke:none;stroke-width:2.34254"
       d="m 217.32151,397.30602 c -7.11005,0 -12.87305,5.62471 -12.87305,12.55859 v 150.19532 c 0,6.9362 5.763,12.55859 12.87305,12.55859 h 54.11719 c 0,0 -0.125,-10.29586 -0.125,-18.70898 -25.23935,4.64605 -31.76824,-6.1541 -33.77735,-11.80469 -1.13012,-2.8881 -6.02753,-11.80365 -10.29687,-14.18946 -3.51594,-1.88353 -8.53812,-6.52873 -0.125,-6.65429 7.91083,-0.12557 13.55982,7.28323 15.44336,10.29687 9.04096,15.19384 23.48165,10.92406 29.25781,8.28711 0.87898,-6.52957 3.51621,-10.92417 6.4043,-13.43554 -22.35127,-2.51138 -45.70703,-11.17553 -45.70703,-49.59961 0,-10.92449 3.89286,-19.9662 10.29687,-26.99805 -1.00455,-2.51139 -4.52112,-12.80852 1.00391,-26.62109 0,0 8.41295,-2.63672 27.625,10.29687 8.03641,-2.26024 16.57655,-3.39062 25.11523,-3.39062 8.53869,0 17.07688,1.13038 25.11328,3.39062 19.21206,-13.05917 27.625,-10.29687 27.625,-10.29687 5.52503,13.81257 2.00847,24.1097 1.00391,26.62109 6.40402,7.03185 10.29688,15.94798 10.29688,26.99805 0,38.54965 -23.48078,47.08823 -45.83204,49.59961 3.6415,3.13922 6.78125,9.16631 6.78125,18.58398 0,13.43587 -0.12695,27.625 -0.12695,27.625 h 44.36719 c 7.1098,0 12.87305,-5.62239 12.87305,-12.55859 V 409.86461 c 0,-6.93388 -5.76325,-12.55859 -12.87305,-12.55859 z" /></g></svg>
