<?xml version="1.0" encoding="UTF-8" standalone="no"?>
<!-- Created with Inkscape (http://www.inkscape.org/) -->

<svg
   width="182"
   height="182"
   id="svg3070"
   version="1.1"
   inkscape:version="1.2 (dc2aeda, 2022-05-15)"
   sodipodi:docname="threads.svg"
   xml:space="preserve"
   xmlns:inkscape="http://www.inkscape.org/namespaces/inkscape"
   xmlns:sodipodi="http://sodipodi.sourceforge.net/DTD/sodipodi-0.dtd"
   xmlns="http://www.w3.org/2000/svg"
   xmlns:svg="http://www.w3.org/2000/svg"
   xmlns:rdf="http://www.w3.org/1999/02/22-rdf-syntax-ns#"
   xmlns:cc="http://creativecommons.org/ns#"
   xmlns:dc="http://purl.org/dc/elements/1.1/"><defs
     id="defs3072" /><sodipodi:namedview
     id="base"
     pagecolor="#ffffff"
     bordercolor="#666666"
     borderopacity="1.0"
     inkscape:pageopacity="0.0"
     inkscape:pageshadow="2"
     inkscape:zoom="2.8"
     inkscape:cx="81.25"
     inkscape:cy="76.964286"
     inkscape:document-units="px"
     inkscape:current-layer="layer1"
     showgrid="false"
     fit-margin-top="0"
     fit-margin-left="0"
     fit-margin-right="0"
     fit-margin-bottom="0"
     inkscape:window-width="1920"
     inkscape:window-height="1027"
     inkscape:window-x="1512"
     inkscape:window-y="25"
     inkscape:window-maximized="1"
     inkscape:showpageshadow="2"
     inkscape:pagecheckerboard="0"
     inkscape:deskcolor="#d1d1d1" /><metadata
     id="metadata3075"><rdf:RDF><cc:Work
         rdf:about=""><dc:format>image/svg+xml</dc:format><dc:type
           rdf:resource="http://purl.org/dc/dcmitype/StillImage" /></cc:Work></rdf:RDF></metadata><g
     inkscape:label="Layer 1"
     inkscape:groupmode="layer"
     id="layer1"
     transform="translate(-200.55198,-393.96227)"><path
       id="path14"
       style="fill:#000000;fill-opacity:1;fill-rule:nonzero;stroke:none;stroke-width:2.34254"
       d="M 217.32151 397.30602 C 210.21146 397.30602 204.44846 402.93073 204.44846 409.86461 L 204.44846 560.05993 C 204.44846 566.99613 210.21146 572.61852 217.32151 572.61852 L 365.78245 572.61852 C 372.89225 572.61852 378.6555 566.99613 378.6555 560.05993 L 378.6555 409.86461 C 378.6555 402.93073 372.89225 397.30602 365.78245 397.30602 L 217.32151 397.30602 z M 292.61448 410.21227 L 292.70237 410.21227 C 314.60761 410.36423 331.60922 417.69189 343.23362 431.99352 C 348.96911 439.04937 353.18399 447.5578 355.86253 457.43102 L 343.28831 460.78454 C 341.07852 452.76332 337.72656 445.8839 333.2805 440.41344 C 324.21317 429.2581 310.54861 423.53666 292.6594 423.40368 C 274.89905 423.53566 261.46667 429.22965 252.73362 440.33141 C 244.55582 450.72702 240.3288 465.74359 240.17112 484.96227 C 240.3288 504.18078 244.55582 519.19548 252.73362 529.59118 C 261.46667 540.6931 274.89905 546.38928 292.6594 546.52086 C 308.67029 546.40329 319.26389 542.59531 328.07737 533.79039 C 338.13667 523.73964 337.94902 511.40983 334.73167 503.90758 C 332.83956 499.49422 329.41306 495.82443 324.79026 493.03454 C 323.66432 501.426 321.11507 508.08493 317.08323 513.22399 C 311.77445 519.99119 304.1642 523.69218 294.46409 524.22399 C 287.11888 524.62499 280.05113 522.85407 274.5637 519.2318 C 268.07348 514.94693 264.27476 508.38754 263.86839 500.76305 C 263.06755 485.73202 274.9927 474.91345 293.54026 473.84508 C 300.12447 473.46758 306.28276 473.76583 311.97776 474.73375 C 311.22169 470.10954 309.69435 466.44582 307.41135 463.7943 C 304.27419 460.15226 299.42846 458.28452 293.0051 458.24352 C 292.94617 458.24298 292.88502 458.24352 292.82542 458.24352 C 287.66813 458.24352 280.66643 459.68649 276.20432 466.45641 L 265.47581 459.09704 C 271.44888 450.03376 281.15305 445.05211 292.82151 445.05211 C 292.9099 445.05211 292.99678 445.05156 293.08518 445.05211 C 312.59343 445.17669 324.2125 457.35028 325.36643 478.61266 C 326.02906 478.8971 326.68344 479.19463 327.32737 479.50329 C 336.42973 483.86985 343.08592 490.48051 346.57737 498.62047 C 351.4439 509.97155 351.88774 528.46279 337.12229 543.21422 C 325.83661 554.48978 312.13774 559.57757 292.70237 559.71227 L 292.61448 559.71227 C 270.75379 559.56122 253.94295 552.20486 242.64964 537.84899 C 232.60014 525.07376 227.41758 507.29711 227.24339 485.015 L 227.24143 484.96227 L 227.24339 484.90954 C 227.41758 462.62721 232.60014 444.85085 242.64964 432.07555 C 253.94295 417.71928 270.75378 410.36369 292.61448 410.21227 z M 298.77659 486.88414 C 297.30105 486.88414 295.79945 486.9267 294.26878 487.015 C 280.90303 487.78524 276.46987 494.25158 276.77854 500.04625 C 277.19494 507.86152 285.64168 511.50995 293.77073 511.05211 C 301.72966 510.61529 310.76182 507.49324 312.30198 488.25914 C 308.17283 487.35647 303.63143 486.88414 298.77659 486.88414 z " /></g></svg>
