<?xml version="1.0" encoding="UTF-8" standalone="no"?>
<!-- Created with Inkscape (http://www.inkscape.org/) -->

<svg
   width="182"
   height="182"
   id="svg3070"
   version="1.1"
   inkscape:version="1.2 (dc2aeda, 2022-05-15)"
   sodipodi:docname="twitter.svg"
   xml:space="preserve"
   xmlns:inkscape="http://www.inkscape.org/namespaces/inkscape"
   xmlns:sodipodi="http://sodipodi.sourceforge.net/DTD/sodipodi-0.dtd"
   xmlns="http://www.w3.org/2000/svg"
   xmlns:svg="http://www.w3.org/2000/svg"
   xmlns:rdf="http://www.w3.org/1999/02/22-rdf-syntax-ns#"
   xmlns:cc="http://creativecommons.org/ns#"
   xmlns:dc="http://purl.org/dc/elements/1.1/"><defs
     id="defs3072" /><sodipodi:namedview
     id="base"
     pagecolor="#ffffff"
     bordercolor="#666666"
     borderopacity="1.0"
     inkscape:pageopacity="0.0"
     inkscape:pageshadow="2"
     inkscape:zoom="2.8"
     inkscape:cx="81.25"
     inkscape:cy="76.964286"
     inkscape:document-units="px"
     inkscape:current-layer="layer1"
     showgrid="false"
     fit-margin-top="0"
     fit-margin-left="0"
     fit-margin-right="0"
     fit-margin-bottom="0"
     inkscape:window-width="1920"
     inkscape:window-height="1027"
     inkscape:window-x="1512"
     inkscape:window-y="25"
     inkscape:window-maximized="1"
     inkscape:showpageshadow="2"
     inkscape:pagecheckerboard="0"
     inkscape:deskcolor="#d1d1d1" /><metadata
     id="metadata3075"><rdf:RDF><cc:Work
         rdf:about=""><dc:format>image/svg+xml</dc:format><dc:type
           rdf:resource="http://purl.org/dc/dcmitype/StillImage" /></cc:Work></rdf:RDF></metadata><g
     inkscape:label="Layer 1"
     inkscape:groupmode="layer"
     id="layer1"
     transform="translate(-200.55198,-393.96227)"><path
       id="path14"
       style="fill:#000000;fill-opacity:1;fill-rule:nonzero;stroke:none;stroke-width:2.34254"
       d="M 217.32151 397.30602 C 210.21146 397.30602 204.44846 402.93073 204.44846 409.86461 L 204.44846 560.05993 C 204.44846 566.99613 210.21146 572.61852 217.32151 572.61852 L 365.78245 572.61852 C 372.89225 572.61852 378.6555 566.99613 378.6555 560.05993 L 378.6555 409.86461 C 378.6555 402.93073 372.89225 397.30602 365.78245 397.30602 L 217.32151 397.30602 z M 321.70237 423.36266 C 329.66848 423.60679 337.54102 426.88912 343.43089 433.15172 C 350.39893 431.77783 357.07703 429.22162 363.1887 425.59899 C 360.86602 432.80113 356.00461 438.91847 349.51096 442.80602 C 355.67809 442.07904 361.70392 440.42936 367.37815 437.90954 C 363.20103 444.16907 357.93978 449.62165 351.85276 454.02672 C 351.94516 455.36365 351.94456 456.69896 351.94456 458.04821 C 351.94456 499.16023 320.64628 546.57555 263.41721 546.57555 L 263.41721 546.55016 C 246.51157 546.57486 229.9576 541.73343 215.72581 532.60289 C 218.18403 532.89862 220.65536 533.04595 223.13206 533.05211 C 237.14206 533.06441 250.75074 528.3645 261.77268 519.70836 C 248.45888 519.45576 236.78483 510.77401 232.70628 498.10094 C 237.37012 499.00043 242.17556 498.81645 246.75315 497.56579 C 232.23796 494.63317 221.79417 481.87867 221.79417 467.06774 L 221.79417 466.67516 C 226.11915 469.0841 230.96185 470.41988 235.91526 470.56774 C 222.24411 461.43105 218.03068 443.24425 226.28635 429.02477 C 242.08303 448.46256 265.38979 460.27996 290.4094 461.53063 C 287.90189 450.72432 291.32624 439.40052 299.4094 431.80407 C 305.67509 425.9142 313.73626 423.11853 321.70237 423.36266 z " /></g></svg>
